# xmcd CD database file
# Copyright (C) 1996 Ti Kan
#
# Track frame offsets:
# 	150
# 	15902
# 	37382
# 	51392
# 	76652
#
# Disc length: 1239 seconds
#
# Revision: 1
# Processed by: cddbd v1.4b41PL1 Copyright (c) Steve Scherf et al.
# Submitted via: DiscPlay 3.4.1
#
DISCID=3404d505
DTITLE=Medicine Hat - C'mon here
DYEAR=1900
DGENRE=
TTITLE0=C'mon here
TTITLE1=C'mon here (LP Version)
TTITLE2=One of these days
TTITLE3=Western Wind
TTITLE4=Jack Rabbit
EXTD=
EXTT0=
EXTT1=
EXTT2=
EXTT3=
EXTT4=
PLAYORDER=
